<mxfile host="Electron" agent="Mozilla/5.0 (Windows NT 10.0; Win64; x64) AppleWebKit/537.36 (KHTML, like Gecko) draw.io/24.7.17 Chrome/128.0.6613.36 Electron/32.0.1 Safari/537.36" version="24.7.17">
  <diagram name="Page-1" id="jd6FsF0b5a80dBs3JIy4">
    <mxGraphModel dx="560" dy="319" grid="1" gridSize="10" guides="1" tooltips="1" connect="1" arrows="1" fold="1" page="1" pageScale="1" pageWidth="850" pageHeight="1100" math="0" shadow="0">
      <root>
        <mxCell id="0" />
        <mxCell id="1" parent="0" />
        <mxCell id="4LoS4sryReH8r961tdBD-1" value="custom Order process&amp;nbsp;" style="swimlane;childLayout=stackLayout;resizeParent=1;resizeParentMax=0;startSize=20;html=1;" vertex="1" parent="1">
          <mxGeometry x="160.00000000000045" y="70" width="1005" height="2200" as="geometry" />
        </mxCell>
        <mxCell id="4LoS4sryReH8r961tdBD-2" value="Sales Associate" style="swimlane;startSize=20;html=1;" vertex="1" parent="4LoS4sryReH8r961tdBD-1">
          <mxGeometry y="20" width="160" height="2180" as="geometry" />
        </mxCell>
        <mxCell id="4LoS4sryReH8r961tdBD-6" value="" style="strokeWidth=2;html=1;shape=mxgraph.flowchart.start_2;whiteSpace=wrap;fillColor=#000000;" vertex="1" parent="4LoS4sryReH8r961tdBD-2">
          <mxGeometry x="69.99999999999955" y="40" width="30" height="30" as="geometry" />
        </mxCell>
        <mxCell id="4LoS4sryReH8r961tdBD-7" value="Record order details with customer detatils" style="rounded=1;whiteSpace=wrap;html=1;" vertex="1" parent="4LoS4sryReH8r961tdBD-2">
          <mxGeometry x="24.999999999999545" y="110" width="120" height="60" as="geometry" />
        </mxCell>
        <mxCell id="4LoS4sryReH8r961tdBD-28" value="Inform to the customer&amp;nbsp;" style="rounded=1;whiteSpace=wrap;html=1;" vertex="1" parent="4LoS4sryReH8r961tdBD-2">
          <mxGeometry x="19.999999999999545" y="1570" width="120" height="60" as="geometry" />
        </mxCell>
        <mxCell id="4LoS4sryReH8r961tdBD-32" value="" style="endArrow=classic;html=1;rounded=0;exitX=0.5;exitY=1;exitDx=0;exitDy=0;exitPerimeter=0;entryX=0.5;entryY=0;entryDx=0;entryDy=0;" edge="1" parent="4LoS4sryReH8r961tdBD-2" source="4LoS4sryReH8r961tdBD-6" target="4LoS4sryReH8r961tdBD-7">
          <mxGeometry width="50" height="50" relative="1" as="geometry">
            <mxPoint x="379.99999999999955" y="190" as="sourcePoint" />
            <mxPoint x="429.99999999999955" y="140" as="targetPoint" />
          </mxGeometry>
        </mxCell>
        <mxCell id="4LoS4sryReH8r961tdBD-3" value="System" style="swimlane;startSize=20;html=1;" vertex="1" parent="4LoS4sryReH8r961tdBD-1">
          <mxGeometry x="160" y="20" width="345" height="2180" as="geometry" />
        </mxCell>
        <mxCell id="4LoS4sryReH8r961tdBD-10" value="Display order details" style="rounded=1;whiteSpace=wrap;html=1;" vertex="1" parent="4LoS4sryReH8r961tdBD-3">
          <mxGeometry x="44.999999999999545" y="200" width="120" height="60" as="geometry" />
        </mxCell>
        <mxCell id="4LoS4sryReH8r961tdBD-11" value="Update order status" style="rounded=1;whiteSpace=wrap;html=1;" vertex="1" parent="4LoS4sryReH8r961tdBD-3">
          <mxGeometry x="44.999999999999545" y="380" width="120" height="60" as="geometry" />
        </mxCell>
        <mxCell id="4LoS4sryReH8r961tdBD-13" value="DisplayCustom orders with status" style="rounded=1;whiteSpace=wrap;html=1;" vertex="1" parent="4LoS4sryReH8r961tdBD-3">
          <mxGeometry x="44.999999999999545" y="490" width="120" height="60" as="geometry" />
        </mxCell>
        <mxCell id="4LoS4sryReH8r961tdBD-15" value="Suggests Supplier" style="rounded=1;whiteSpace=wrap;html=1;" vertex="1" parent="4LoS4sryReH8r961tdBD-3">
          <mxGeometry x="45" y="620" width="120" height="50" as="geometry" />
        </mxCell>
        <mxCell id="4LoS4sryReH8r961tdBD-22" value="Check if raw materials (gold) are available" style="rhombus;whiteSpace=wrap;html=1;" vertex="1" parent="4LoS4sryReH8r961tdBD-3">
          <mxGeometry x="122.49999999999955" y="790" width="110" height="80" as="geometry" />
        </mxCell>
        <mxCell id="4LoS4sryReH8r961tdBD-24" value="Deduct raw materials from the stock&amp;nbsp;" style="rounded=1;whiteSpace=wrap;html=1;" vertex="1" parent="4LoS4sryReH8r961tdBD-3">
          <mxGeometry x="32.5" y="1070" width="145" height="65" as="geometry" />
        </mxCell>
        <mxCell id="4LoS4sryReH8r961tdBD-23" value="Order sent to Supplier&lt;div&gt;via whatsapp message&lt;/div&gt;" style="rounded=1;whiteSpace=wrap;html=1;" vertex="1" parent="4LoS4sryReH8r961tdBD-3">
          <mxGeometry x="89.99999999999955" y="1310" width="120" height="60" as="geometry" />
        </mxCell>
        <mxCell id="4LoS4sryReH8r961tdBD-26" value="Sends a sales notification to the owner/admin" style="rounded=1;whiteSpace=wrap;html=1;" vertex="1" parent="4LoS4sryReH8r961tdBD-3">
          <mxGeometry x="97.49999999999955" y="1970" width="160" height="50" as="geometry" />
        </mxCell>
        <mxCell id="4LoS4sryReH8r961tdBD-25" value="Update Inventory" style="rounded=1;whiteSpace=wrap;html=1;" vertex="1" parent="4LoS4sryReH8r961tdBD-3">
          <mxGeometry x="117.49999999999955" y="1740" width="120" height="60" as="geometry" />
        </mxCell>
        <mxCell id="4LoS4sryReH8r961tdBD-30" value="update order status" style="rounded=1;whiteSpace=wrap;html=1;" vertex="1" parent="4LoS4sryReH8r961tdBD-3">
          <mxGeometry x="117.49999999999955" y="1860" width="120" height="60" as="geometry" />
        </mxCell>
        <mxCell id="4LoS4sryReH8r961tdBD-31" value="" style="ellipse;html=1;shape=endState;fillColor=#000000;strokeColor=#000000;" vertex="1" parent="4LoS4sryReH8r961tdBD-3">
          <mxGeometry x="162.49999999999955" y="2100" width="30" height="30" as="geometry" />
        </mxCell>
        <mxCell id="4LoS4sryReH8r961tdBD-49" value="" style="endArrow=classic;html=1;rounded=0;exitX=0;exitY=0.5;exitDx=0;exitDy=0;entryX=0.317;entryY=-0.007;entryDx=0;entryDy=0;entryPerimeter=0;" edge="1" parent="4LoS4sryReH8r961tdBD-3" source="4LoS4sryReH8r961tdBD-22" target="4LoS4sryReH8r961tdBD-24">
          <mxGeometry width="50" height="50" relative="1" as="geometry">
            <mxPoint x="309.99999999999955" y="960" as="sourcePoint" />
            <mxPoint x="359.99999999999955" y="910" as="targetPoint" />
            <Array as="points">
              <mxPoint x="77.99999999999955" y="830" />
            </Array>
          </mxGeometry>
        </mxCell>
        <mxCell id="4LoS4sryReH8r961tdBD-50" value="Yes" style="edgeLabel;html=1;align=center;verticalAlign=middle;resizable=0;points=[];" vertex="1" connectable="0" parent="4LoS4sryReH8r961tdBD-49">
          <mxGeometry x="-0.4433" y="2" relative="1" as="geometry">
            <mxPoint as="offset" />
          </mxGeometry>
        </mxCell>
        <mxCell id="4LoS4sryReH8r961tdBD-58" value="" style="endArrow=classic;html=1;rounded=0;exitX=0.5;exitY=1;exitDx=0;exitDy=0;entryX=0.5;entryY=0;entryDx=0;entryDy=0;" edge="1" parent="4LoS4sryReH8r961tdBD-3" source="4LoS4sryReH8r961tdBD-25" target="4LoS4sryReH8r961tdBD-30">
          <mxGeometry width="50" height="50" relative="1" as="geometry">
            <mxPoint x="294.99999999999955" y="1860" as="sourcePoint" />
            <mxPoint x="344.99999999999955" y="1810" as="targetPoint" />
          </mxGeometry>
        </mxCell>
        <mxCell id="4LoS4sryReH8r961tdBD-57" value="" style="endArrow=classic;html=1;rounded=0;exitX=0.5;exitY=1;exitDx=0;exitDy=0;entryX=0.5;entryY=0;entryDx=0;entryDy=0;" edge="1" parent="4LoS4sryReH8r961tdBD-3" source="4LoS4sryReH8r961tdBD-30" target="4LoS4sryReH8r961tdBD-26">
          <mxGeometry width="50" height="50" relative="1" as="geometry">
            <mxPoint x="369.99999999999955" y="1800" as="sourcePoint" />
            <mxPoint x="419.99999999999955" y="1750" as="targetPoint" />
          </mxGeometry>
        </mxCell>
        <mxCell id="4LoS4sryReH8r961tdBD-56" value="" style="endArrow=classic;html=1;rounded=0;exitX=0.5;exitY=1;exitDx=0;exitDy=0;entryX=0.5;entryY=0;entryDx=0;entryDy=0;" edge="1" parent="4LoS4sryReH8r961tdBD-3" source="4LoS4sryReH8r961tdBD-26" target="4LoS4sryReH8r961tdBD-31">
          <mxGeometry width="50" height="50" relative="1" as="geometry">
            <mxPoint x="369.99999999999955" y="1700" as="sourcePoint" />
            <mxPoint x="419.99999999999955" y="1650" as="targetPoint" />
          </mxGeometry>
        </mxCell>
        <mxCell id="4LoS4sryReH8r961tdBD-4" value="Store Manager" style="swimlane;startSize=20;html=1;" vertex="1" parent="4LoS4sryReH8r961tdBD-1">
          <mxGeometry x="505" y="20" width="300" height="2180" as="geometry" />
        </mxCell>
        <mxCell id="4LoS4sryReH8r961tdBD-12" value="check incomplete custom orders" style="rounded=1;whiteSpace=wrap;html=1;" vertex="1" parent="4LoS4sryReH8r961tdBD-4">
          <mxGeometry x="49.999999999999545" y="380" width="120" height="60" as="geometry" />
        </mxCell>
        <mxCell id="4LoS4sryReH8r961tdBD-14" value="Select order item category" style="rounded=1;whiteSpace=wrap;html=1;" vertex="1" parent="4LoS4sryReH8r961tdBD-4">
          <mxGeometry x="50" y="530" width="120" height="50" as="geometry" />
        </mxCell>
        <mxCell id="4LoS4sryReH8r961tdBD-18" value="is gold supply?" style="rhombus;whiteSpace=wrap;html=1;" vertex="1" parent="4LoS4sryReH8r961tdBD-4">
          <mxGeometry x="110" y="700" width="80" height="70" as="geometry" />
        </mxCell>
        <mxCell id="4LoS4sryReH8r961tdBD-20" value="" style="line;strokeWidth=6;rotatable=0;dashed=0;labelPosition=right;align=left;verticalAlign=middle;spacingTop=0;spacingLeft=6;points=[];portConstraint=eastwest;" vertex="1" parent="4LoS4sryReH8r961tdBD-4">
          <mxGeometry x="130" y="920" width="140" height="10" as="geometry" />
        </mxCell>
        <mxCell id="4LoS4sryReH8r961tdBD-17" value="Proceed with order&lt;div&gt;without gold materials&amp;nbsp;&lt;/div&gt;" style="rounded=1;whiteSpace=wrap;html=1;" vertex="1" parent="4LoS4sryReH8r961tdBD-4">
          <mxGeometry x="159.99999999999955" y="1000" width="120" height="60" as="geometry" />
        </mxCell>
        <mxCell id="4LoS4sryReH8r961tdBD-19" value="Proceed with order&lt;div&gt;with gold materials&amp;nbsp;&lt;/div&gt;" style="rounded=1;whiteSpace=wrap;html=1;" vertex="1" parent="4LoS4sryReH8r961tdBD-4">
          <mxGeometry x="9.999999999999545" y="1070" width="120" height="60" as="geometry" />
        </mxCell>
        <mxCell id="4LoS4sryReH8r961tdBD-21" value="" style="line;strokeWidth=6;rotatable=0;dashed=0;labelPosition=right;align=left;verticalAlign=middle;spacingTop=0;spacingLeft=6;points=[];portConstraint=eastwest;" vertex="1" parent="4LoS4sryReH8r961tdBD-4">
          <mxGeometry x="50" y="1230" width="210" height="10" as="geometry" />
        </mxCell>
        <mxCell id="4LoS4sryReH8r961tdBD-27" value="Product Received" style="rounded=1;whiteSpace=wrap;html=1;" vertex="1" parent="4LoS4sryReH8r961tdBD-4">
          <mxGeometry x="74.99999999999955" y="1510" width="120" height="60" as="geometry" />
        </mxCell>
        <mxCell id="4LoS4sryReH8r961tdBD-44" value="" style="endArrow=classic;html=1;rounded=0;exitX=1;exitY=0.5;exitDx=0;exitDy=0;entryX=0.826;entryY=0.673;entryDx=0;entryDy=0;entryPerimeter=0;" edge="1" parent="4LoS4sryReH8r961tdBD-4" source="4LoS4sryReH8r961tdBD-18" target="4LoS4sryReH8r961tdBD-20">
          <mxGeometry width="50" height="50" relative="1" as="geometry">
            <mxPoint x="-35.000000000000455" y="710" as="sourcePoint" />
            <mxPoint x="14.999999999999545" y="660" as="targetPoint" />
            <Array as="points">
              <mxPoint x="245.99999999999955" y="735" />
            </Array>
          </mxGeometry>
        </mxCell>
        <mxCell id="4LoS4sryReH8r961tdBD-45" value="No" style="edgeLabel;html=1;align=center;verticalAlign=middle;resizable=0;points=[];" vertex="1" connectable="0" parent="4LoS4sryReH8r961tdBD-44">
          <mxGeometry x="-0.8105" y="1" relative="1" as="geometry">
            <mxPoint as="offset" />
          </mxGeometry>
        </mxCell>
        <mxCell id="4LoS4sryReH8r961tdBD-48" value="" style="endArrow=classic;html=1;rounded=0;exitX=0.606;exitY=0.327;exitDx=0;exitDy=0;exitPerimeter=0;entryX=0.461;entryY=-0.001;entryDx=0;entryDy=0;entryPerimeter=0;" edge="1" parent="4LoS4sryReH8r961tdBD-4" source="4LoS4sryReH8r961tdBD-20" target="4LoS4sryReH8r961tdBD-17">
          <mxGeometry width="50" height="50" relative="1" as="geometry">
            <mxPoint x="24.999999999999545" y="980" as="sourcePoint" />
            <mxPoint x="74.99999999999955" y="930" as="targetPoint" />
          </mxGeometry>
        </mxCell>
        <mxCell id="4LoS4sryReH8r961tdBD-53" value="" style="endArrow=classic;html=1;rounded=0;exitX=0.681;exitY=1.007;exitDx=0;exitDy=0;exitPerimeter=0;entryX=0.917;entryY=0.644;entryDx=0;entryDy=0;entryPerimeter=0;" edge="1" parent="4LoS4sryReH8r961tdBD-4" source="4LoS4sryReH8r961tdBD-17" target="4LoS4sryReH8r961tdBD-21">
          <mxGeometry width="50" height="50" relative="1" as="geometry">
            <mxPoint x="-75.00000000000045" y="1020" as="sourcePoint" />
            <mxPoint x="-25.000000000000455" y="970" as="targetPoint" />
          </mxGeometry>
        </mxCell>
        <mxCell id="4LoS4sryReH8r961tdBD-52" value="" style="endArrow=classic;html=1;rounded=0;exitX=0.637;exitY=1.028;exitDx=0;exitDy=0;exitPerimeter=0;entryX=0.17;entryY=0.396;entryDx=0;entryDy=0;entryPerimeter=0;" edge="1" parent="4LoS4sryReH8r961tdBD-4" source="4LoS4sryReH8r961tdBD-19" target="4LoS4sryReH8r961tdBD-21">
          <mxGeometry width="50" height="50" relative="1" as="geometry">
            <mxPoint x="-75.00000000000045" y="1020" as="sourcePoint" />
            <mxPoint x="-25.000000000000455" y="970" as="targetPoint" />
          </mxGeometry>
        </mxCell>
        <mxCell id="4LoS4sryReH8r961tdBD-5" value="Cashier" style="swimlane;startSize=20;html=1;" vertex="1" parent="4LoS4sryReH8r961tdBD-1">
          <mxGeometry x="805" y="20" width="200" height="2180" as="geometry" />
        </mxCell>
        <mxCell id="4LoS4sryReH8r961tdBD-9" value="Check order details" style="rounded=1;whiteSpace=wrap;html=1;" vertex="1" parent="4LoS4sryReH8r961tdBD-5">
          <mxGeometry x="39.999999999999545" y="110" width="120" height="60" as="geometry" />
        </mxCell>
        <mxCell id="4LoS4sryReH8r961tdBD-16" value="advance or full payment are accepted" style="rounded=1;whiteSpace=wrap;html=1;" vertex="1" parent="4LoS4sryReH8r961tdBD-5">
          <mxGeometry x="39.999999999999545" y="270" width="120" height="60" as="geometry" />
        </mxCell>
        <mxCell id="4LoS4sryReH8r961tdBD-29" value="accept full payment" style="rounded=1;whiteSpace=wrap;html=1;" vertex="1" parent="4LoS4sryReH8r961tdBD-5">
          <mxGeometry x="34.999999999999545" y="1570" width="120" height="60" as="geometry" />
        </mxCell>
        <mxCell id="4LoS4sryReH8r961tdBD-36" value="" style="endArrow=classic;html=1;rounded=0;exitX=1;exitY=0.5;exitDx=0;exitDy=0;entryX=0;entryY=0.5;entryDx=0;entryDy=0;" edge="1" parent="4LoS4sryReH8r961tdBD-1" source="4LoS4sryReH8r961tdBD-7" target="4LoS4sryReH8r961tdBD-9">
          <mxGeometry width="50" height="50" relative="1" as="geometry">
            <mxPoint x="489.99999999999955" y="200" as="sourcePoint" />
            <mxPoint x="539.9999999999995" y="150" as="targetPoint" />
          </mxGeometry>
        </mxCell>
        <mxCell id="4LoS4sryReH8r961tdBD-35" value="" style="endArrow=classic;html=1;rounded=0;exitX=0.308;exitY=0.973;exitDx=0;exitDy=0;exitPerimeter=0;entryX=1;entryY=0.5;entryDx=0;entryDy=0;" edge="1" parent="4LoS4sryReH8r961tdBD-1" source="4LoS4sryReH8r961tdBD-9" target="4LoS4sryReH8r961tdBD-10">
          <mxGeometry width="50" height="50" relative="1" as="geometry">
            <mxPoint x="489.99999999999955" y="200" as="sourcePoint" />
            <mxPoint x="539.9999999999995" y="150" as="targetPoint" />
            <Array as="points">
              <mxPoint x="881.9999999999995" y="250" />
            </Array>
          </mxGeometry>
        </mxCell>
        <mxCell id="4LoS4sryReH8r961tdBD-34" value="" style="endArrow=classic;html=1;rounded=0;exitX=0.455;exitY=0.945;exitDx=0;exitDy=0;exitPerimeter=0;entryX=0;entryY=0.5;entryDx=0;entryDy=0;" edge="1" parent="4LoS4sryReH8r961tdBD-1" source="4LoS4sryReH8r961tdBD-10" target="4LoS4sryReH8r961tdBD-16">
          <mxGeometry width="50" height="50" relative="1" as="geometry">
            <mxPoint x="489.99999999999955" y="200" as="sourcePoint" />
            <mxPoint x="539.9999999999995" y="150" as="targetPoint" />
            <Array as="points">
              <mxPoint x="259.99999999999955" y="320" />
            </Array>
          </mxGeometry>
        </mxCell>
        <mxCell id="4LoS4sryReH8r961tdBD-33" value="" style="endArrow=classic;html=1;rounded=0;entryX=0.5;entryY=0;entryDx=0;entryDy=0;exitX=0.5;exitY=1;exitDx=0;exitDy=0;" edge="1" parent="4LoS4sryReH8r961tdBD-1" source="4LoS4sryReH8r961tdBD-16" target="4LoS4sryReH8r961tdBD-11">
          <mxGeometry width="50" height="50" relative="1" as="geometry">
            <mxPoint x="489.99999999999955" y="200" as="sourcePoint" />
            <mxPoint x="539.9999999999995" y="150" as="targetPoint" />
            <Array as="points">
              <mxPoint x="904.9999999999995" y="370" />
              <mxPoint x="264.99999999999955" y="370" />
            </Array>
          </mxGeometry>
        </mxCell>
        <mxCell id="4LoS4sryReH8r961tdBD-37" value="" style="endArrow=classic;html=1;rounded=0;exitX=1;exitY=0.5;exitDx=0;exitDy=0;" edge="1" parent="4LoS4sryReH8r961tdBD-1" source="4LoS4sryReH8r961tdBD-11" target="4LoS4sryReH8r961tdBD-12">
          <mxGeometry width="50" height="50" relative="1" as="geometry">
            <mxPoint x="479.99999999999955" y="340" as="sourcePoint" />
            <mxPoint x="529.9999999999995" y="290" as="targetPoint" />
          </mxGeometry>
        </mxCell>
        <mxCell id="4LoS4sryReH8r961tdBD-39" value="" style="endArrow=classic;html=1;rounded=0;exitX=0.572;exitY=0.975;exitDx=0;exitDy=0;exitPerimeter=0;entryX=0.5;entryY=0;entryDx=0;entryDy=0;" edge="1" parent="4LoS4sryReH8r961tdBD-1" source="4LoS4sryReH8r961tdBD-12" target="4LoS4sryReH8r961tdBD-13">
          <mxGeometry width="50" height="50" relative="1" as="geometry">
            <mxPoint x="449.99999999999955" y="500" as="sourcePoint" />
            <mxPoint x="499.99999999999955" y="450" as="targetPoint" />
            <Array as="points">
              <mxPoint x="623.9999999999995" y="490" />
              <mxPoint x="264.99999999999955" y="490" />
            </Array>
          </mxGeometry>
        </mxCell>
        <mxCell id="4LoS4sryReH8r961tdBD-38" value="" style="endArrow=classic;html=1;rounded=0;exitX=1;exitY=0.5;exitDx=0;exitDy=0;entryX=0;entryY=0.5;entryDx=0;entryDy=0;" edge="1" parent="4LoS4sryReH8r961tdBD-1" source="4LoS4sryReH8r961tdBD-13" target="4LoS4sryReH8r961tdBD-14">
          <mxGeometry width="50" height="50" relative="1" as="geometry">
            <mxPoint x="449.99999999999955" y="500" as="sourcePoint" />
            <mxPoint x="499.99999999999955" y="450" as="targetPoint" />
            <Array as="points">
              <mxPoint x="479.99999999999955" y="540" />
              <mxPoint x="479.99999999999955" y="575" />
            </Array>
          </mxGeometry>
        </mxCell>
        <mxCell id="4LoS4sryReH8r961tdBD-41" value="" style="endArrow=classic;html=1;rounded=0;exitX=0.5;exitY=1;exitDx=0;exitDy=0;entryX=0.5;entryY=0;entryDx=0;entryDy=0;" edge="1" parent="4LoS4sryReH8r961tdBD-1" source="4LoS4sryReH8r961tdBD-14" target="4LoS4sryReH8r961tdBD-15">
          <mxGeometry width="50" height="50" relative="1" as="geometry">
            <mxPoint x="419.99999999999955" y="620" as="sourcePoint" />
            <mxPoint x="469.99999999999955" y="570" as="targetPoint" />
            <Array as="points">
              <mxPoint x="614.9999999999995" y="620" />
              <mxPoint x="264.99999999999955" y="620" />
            </Array>
          </mxGeometry>
        </mxCell>
        <mxCell id="4LoS4sryReH8r961tdBD-40" value="" style="endArrow=classic;html=1;rounded=0;exitX=0.991;exitY=0.396;exitDx=0;exitDy=0;exitPerimeter=0;entryX=0.5;entryY=0;entryDx=0;entryDy=0;" edge="1" parent="4LoS4sryReH8r961tdBD-1" source="4LoS4sryReH8r961tdBD-15" target="4LoS4sryReH8r961tdBD-18">
          <mxGeometry width="50" height="50" relative="1" as="geometry">
            <mxPoint x="419.99999999999955" y="620" as="sourcePoint" />
            <mxPoint x="469.99999999999955" y="570" as="targetPoint" />
            <Array as="points">
              <mxPoint x="654.9999999999995" y="660" />
            </Array>
          </mxGeometry>
        </mxCell>
        <mxCell id="4LoS4sryReH8r961tdBD-43" value="" style="endArrow=classic;html=1;rounded=0;exitX=0;exitY=0.5;exitDx=0;exitDy=0;entryX=0.5;entryY=0;entryDx=0;entryDy=0;" edge="1" parent="4LoS4sryReH8r961tdBD-1" source="4LoS4sryReH8r961tdBD-18" target="4LoS4sryReH8r961tdBD-22">
          <mxGeometry width="50" height="50" relative="1" as="geometry">
            <mxPoint x="469.99999999999955" y="730" as="sourcePoint" />
            <mxPoint x="519.9999999999995" y="680" as="targetPoint" />
            <Array as="points">
              <mxPoint x="337.99999999999955" y="755" />
            </Array>
          </mxGeometry>
        </mxCell>
        <mxCell id="4LoS4sryReH8r961tdBD-46" value="Yes" style="edgeLabel;html=1;align=center;verticalAlign=middle;resizable=0;points=[];" vertex="1" connectable="0" parent="4LoS4sryReH8r961tdBD-43">
          <mxGeometry x="-0.6032" y="1" relative="1" as="geometry">
            <mxPoint as="offset" />
          </mxGeometry>
        </mxCell>
        <mxCell id="4LoS4sryReH8r961tdBD-42" value="" style="endArrow=classic;html=1;rounded=0;exitX=1;exitY=0.5;exitDx=0;exitDy=0;entryX=0.247;entryY=0.673;entryDx=0;entryDy=0;entryPerimeter=0;" edge="1" parent="4LoS4sryReH8r961tdBD-1" source="4LoS4sryReH8r961tdBD-22" target="4LoS4sryReH8r961tdBD-20">
          <mxGeometry width="50" height="50" relative="1" as="geometry">
            <mxPoint x="469.99999999999955" y="730" as="sourcePoint" />
            <mxPoint x="519.9999999999995" y="680" as="targetPoint" />
            <Array as="points">
              <mxPoint x="669.9999999999995" y="850" />
            </Array>
          </mxGeometry>
        </mxCell>
        <mxCell id="4LoS4sryReH8r961tdBD-47" value="No" style="edgeLabel;html=1;align=center;verticalAlign=middle;resizable=0;points=[];" vertex="1" connectable="0" parent="4LoS4sryReH8r961tdBD-42">
          <mxGeometry x="-0.7793" y="1" relative="1" as="geometry">
            <mxPoint as="offset" />
          </mxGeometry>
        </mxCell>
        <mxCell id="4LoS4sryReH8r961tdBD-51" value="" style="endArrow=classic;html=1;rounded=0;exitX=1;exitY=0.5;exitDx=0;exitDy=0;entryX=0;entryY=0.5;entryDx=0;entryDy=0;" edge="1" parent="4LoS4sryReH8r961tdBD-1" source="4LoS4sryReH8r961tdBD-24" target="4LoS4sryReH8r961tdBD-19">
          <mxGeometry width="50" height="50" relative="1" as="geometry">
            <mxPoint x="409.99999999999955" y="1100" as="sourcePoint" />
            <mxPoint x="459.99999999999955" y="1050" as="targetPoint" />
          </mxGeometry>
        </mxCell>
        <mxCell id="4LoS4sryReH8r961tdBD-55" value="" style="endArrow=classic;html=1;rounded=0;exitX=0.504;exitY=0.54;exitDx=0;exitDy=0;exitPerimeter=0;entryX=0.5;entryY=0;entryDx=0;entryDy=0;" edge="1" parent="4LoS4sryReH8r961tdBD-1" source="4LoS4sryReH8r961tdBD-21" target="4LoS4sryReH8r961tdBD-23">
          <mxGeometry width="50" height="50" relative="1" as="geometry">
            <mxPoint x="399.99999999999955" y="1290" as="sourcePoint" />
            <mxPoint x="449.99999999999955" y="1240" as="targetPoint" />
            <Array as="points">
              <mxPoint x="659.9999999999995" y="1290" />
              <mxPoint x="309.99999999999955" y="1290" />
            </Array>
          </mxGeometry>
        </mxCell>
        <mxCell id="4LoS4sryReH8r961tdBD-54" value="" style="endArrow=classic;html=1;rounded=0;exitX=1;exitY=0.5;exitDx=0;exitDy=0;entryX=0.5;entryY=0;entryDx=0;entryDy=0;" edge="1" parent="4LoS4sryReH8r961tdBD-1" source="4LoS4sryReH8r961tdBD-23" target="4LoS4sryReH8r961tdBD-27">
          <mxGeometry width="50" height="50" relative="1" as="geometry">
            <mxPoint x="399.99999999999955" y="1190" as="sourcePoint" />
            <mxPoint x="449.99999999999955" y="1140" as="targetPoint" />
            <Array as="points">
              <mxPoint x="639.9999999999995" y="1360" />
            </Array>
          </mxGeometry>
        </mxCell>
        <mxCell id="4LoS4sryReH8r961tdBD-61" value="" style="endArrow=classic;html=1;rounded=0;exitX=0;exitY=0.5;exitDx=0;exitDy=0;entryX=0.5;entryY=0;entryDx=0;entryDy=0;" edge="1" parent="4LoS4sryReH8r961tdBD-1" source="4LoS4sryReH8r961tdBD-27" target="4LoS4sryReH8r961tdBD-28">
          <mxGeometry width="50" height="50" relative="1" as="geometry">
            <mxPoint x="439.99999999999955" y="1370" as="sourcePoint" />
            <mxPoint x="489.99999999999955" y="1320" as="targetPoint" />
            <Array as="points">
              <mxPoint x="79.99999999999955" y="1560" />
            </Array>
          </mxGeometry>
        </mxCell>
        <mxCell id="4LoS4sryReH8r961tdBD-60" value="" style="endArrow=classic;html=1;rounded=0;exitX=1;exitY=0.5;exitDx=0;exitDy=0;entryX=0;entryY=0.5;entryDx=0;entryDy=0;" edge="1" parent="4LoS4sryReH8r961tdBD-1" source="4LoS4sryReH8r961tdBD-28" target="4LoS4sryReH8r961tdBD-29">
          <mxGeometry width="50" height="50" relative="1" as="geometry">
            <mxPoint x="439.99999999999955" y="1370" as="sourcePoint" />
            <mxPoint x="489.99999999999955" y="1320" as="targetPoint" />
          </mxGeometry>
        </mxCell>
        <mxCell id="4LoS4sryReH8r961tdBD-59" value="" style="endArrow=classic;html=1;rounded=0;exitX=0.5;exitY=1;exitDx=0;exitDy=0;entryX=0.5;entryY=0;entryDx=0;entryDy=0;" edge="1" parent="4LoS4sryReH8r961tdBD-1" source="4LoS4sryReH8r961tdBD-29" target="4LoS4sryReH8r961tdBD-25">
          <mxGeometry width="50" height="50" relative="1" as="geometry">
            <mxPoint x="439.99999999999955" y="1370" as="sourcePoint" />
            <mxPoint x="489.99999999999955" y="1320" as="targetPoint" />
            <Array as="points">
              <mxPoint x="899.9999999999995" y="1690" />
              <mxPoint x="337.99999999999955" y="1690" />
            </Array>
          </mxGeometry>
        </mxCell>
      </root>
    </mxGraphModel>
  </diagram>
</mxfile>
